<svg width="126" height="126" viewBox="0 0 126 126" fill="none" xmlns="http://www.w3.org/2000/svg">
<circle cx="63" cy="63" r="61" stroke="#B69556" stroke-width="4"/>
<path d="M60.4444 100V36H64.5556V100H60.4444ZM74.2818 55.2C73.981 52.6667 72.7611 50.7 70.622 49.3C68.4828 47.9 65.8591 47.2 62.7507 47.2C60.4779 47.2 58.4892 47.5667 56.7846 48.3C55.0967 49.0333 53.7764 50.0417 52.8238 51.325C51.888 52.6083 51.4201 54.0667 51.4201 55.7C51.4201 57.0667 51.7459 58.2417 52.3977 59.225C53.0662 60.1917 53.9185 61 54.9546 61.65C55.9907 62.2833 57.077 62.8083 58.2134 63.225C59.3498 63.625 60.3943 63.95 61.3469 64.2L66.561 65.6C67.8979 65.95 69.3853 66.4333 71.023 67.05C72.6775 67.6667 74.2568 68.5083 75.7608 69.575C77.2816 70.625 78.535 71.975 79.521 73.625C80.507 75.275 81 77.3 81 79.7C81 82.4667 80.273 84.9667 78.8191 87.2C77.3819 89.4333 75.2762 91.2083 72.502 92.525C69.7446 93.8417 66.3939 94.5 62.4499 94.5C58.7733 94.5 55.5897 93.9083 52.8991 92.725C50.2252 91.5417 48.1195 89.8917 46.582 87.775C45.0612 85.6583 44.2005 83.2 44 80.4H50.4173C50.5845 82.3333 51.2362 83.9333 52.3726 85.2C53.5257 86.45 54.9797 87.3833 56.7344 88C58.5059 88.6 60.411 88.9 62.4499 88.9C64.8229 88.9 66.9537 88.5167 68.8421 87.75C70.7306 86.9667 72.2263 85.8833 73.3293 84.5C74.4322 83.1 74.9837 81.4667 74.9837 79.6C74.9837 77.9 74.5075 76.5167 73.5549 75.45C72.6023 74.3833 71.3489 73.5167 69.7947 72.85C68.2405 72.1833 66.561 71.6 64.7561 71.1L58.439 69.3C54.4282 68.15 51.2529 66.5083 48.9133 64.375C46.5736 62.2417 45.4038 59.45 45.4038 56C45.4038 53.1333 46.1809 50.6333 47.7351 48.5C49.306 46.35 51.4117 44.6833 54.0522 43.5C56.7093 42.3 59.6757 41.7 62.9512 41.7C66.2602 41.7 69.2014 42.2917 71.7751 43.475C74.3487 44.6417 76.3875 46.2417 77.8916 48.275C79.4124 50.3083 80.2145 52.6167 80.2981 55.2H74.2818Z" fill="#DFC695"/>
</svg>
