<svg width="126" height="126" viewBox="0 0 126 126" fill="none" xmlns="http://www.w3.org/2000/svg">
<path d="M32 32V94H95" stroke="#DFC695" stroke-width="4" stroke-linecap="square"/>
<path d="M40.8705 80.0129L39.8835 81.1424L42.1424 83.1165L43.1295 81.9871L40.8705 80.0129ZM60.9091 59.3636L61.886 58.2253L60.7579 57.2572L59.7796 58.3766L60.9091 59.3636ZM73.5152 70.1818L72.5383 71.3201L73.6602 72.2829L74.6392 71.1751L73.5152 70.1818ZM94 47L77.5778 52.5057L90.557 63.9749L94 47ZM43.1295 81.9871L62.0385 60.3507L59.7796 58.3766L40.8705 80.0129L43.1295 81.9871ZM59.9322 60.5019L72.5383 71.3201L74.492 69.0435L61.886 58.2253L59.9322 60.5019ZM74.6392 71.1751L86.1847 58.1095L83.9366 56.123L72.3911 69.1886L74.6392 71.1751Z" fill="#DFC695"/>
<circle cx="63" cy="63" r="61" stroke="#B69556" stroke-width="4"/>
</svg>
