<svg width="25" height="25" viewBox="0 0 25 25" xmlns="http://www.w3.org/2000/svg">
<path d="M10.3918 14.2968C11.9242 15.8513 13.7784 17.0515 15.8241 17.8131L18.5917 15.6108C18.6737 15.5543 18.771 15.524 18.8706 15.524C18.9703 15.524 19.0675 15.5543 19.1496 15.6108L24.2883 18.9216C24.4834 19.0389 24.6485 19.1999 24.7707 19.392C24.8928 19.5841 24.9687 19.8019 24.9922 20.0283C25.0157 20.2548 24.9862 20.4835 24.9061 20.6966C24.826 20.9097 24.6974 21.1012 24.5306 21.256L22.1227 23.6345C21.7779 23.9752 21.3541 24.2253 20.8891 24.3623C20.4241 24.4994 19.9324 24.5192 19.4579 24.42C14.7246 23.4424 10.3618 21.1529 6.86809 17.8131C3.45194 14.4401 1.08798 10.1482 0.0629753 5.45818C-0.038282 4.99103 -0.0171482 4.50564 0.124329 4.04905C0.265805 3.59247 0.522828 3.18017 0.870486 2.85212L3.36643 0.444269C3.52088 0.285548 3.70924 0.163824 3.91741 0.0882141C4.12557 0.0126039 4.34814 -0.0149341 4.56845 0.00766212C4.78877 0.0302584 5.00112 0.102403 5.1896 0.218695C5.37808 0.334987 5.53781 0.492411 5.65683 0.679182L9.07774 5.75182C9.13674 5.83147 9.16859 5.92798 9.16859 6.02711C9.16859 6.12624 9.13674 6.22274 9.07774 6.3024L6.82405 9.01123C7.60629 11.016 8.82501 12.8215 10.3918 14.2968Z" />
</svg>
