<svg width="25" height="25" viewBox="0 0 25 25" xmlns="http://www.w3.org/2000/svg">
<path d="M11.8734 0.00391244C9.8672 0.0281312 5.55391 0.357819 3.14141 2.5711C1.34688 4.34923 0.72032 6.97813 0.646882 10.2289C0.585945 13.468 0.512507 19.5508 6.37579 21.207V23.7297C6.37579 23.7297 6.33907 24.7391 7.00626 24.9461C7.82813 25.2063 8.2961 24.4297 9.07735 23.5953L10.5344 21.9477C14.5461 22.2813 17.6188 21.5125 17.9727 21.3984C18.7867 21.1383 23.3719 20.5524 24.1211 14.4688C24.8899 8.18594 23.7469 4.22735 21.6836 2.43672H21.6711C21.0484 1.86329 18.5461 0.0398499 12.9555 0.0195374C12.9555 0.0195374 12.5406 -0.00858756 11.8734 0.00313119V0.00391244ZM11.9422 1.77032C12.5117 1.76641 12.8578 1.79063 12.8578 1.79063C17.5899 1.80313 19.8484 3.22735 20.3813 3.70704C22.1188 5.1961 23.0141 8.76485 22.3586 14.0102C21.7359 19.0961 18.0172 19.418 17.3289 19.6375C17.0359 19.7313 14.3297 20.3984 10.9203 20.1789C10.9203 20.1789 8.38126 23.243 7.58751 24.032C7.46173 24.1703 7.31485 24.2109 7.2211 24.1906C7.08673 24.1578 7.0461 23.9914 7.05391 23.7633L7.07813 19.5766C2.10548 18.2016 2.39844 13.0133 2.45157 10.3031C2.51251 7.59297 3.0211 5.37579 4.53516 3.87422C6.57344 2.03126 10.2359 1.78282 11.9406 1.77032H11.9422ZM12.3172 4.47969C12.2763 4.47928 12.2357 4.48697 12.1977 4.50233C12.1598 4.51768 12.1253 4.54039 12.0961 4.56915C12.067 4.59791 12.0439 4.63215 12.028 4.66989C12.0122 4.70764 12.004 4.74814 12.0039 4.78907C12.0039 4.96407 12.1461 5.10235 12.3172 5.10235C13.0918 5.08762 13.8617 5.22639 14.5824 5.51065C15.3031 5.79492 15.9604 6.21905 16.5164 6.7586C17.6516 7.86094 18.2047 9.34219 18.2258 11.2789C18.2258 11.45 18.3641 11.5922 18.5391 11.5922V11.5797C18.6215 11.5799 18.7008 11.5475 18.7594 11.4895C18.8181 11.4316 18.8515 11.3528 18.8524 11.2703C18.8903 10.3587 18.7425 9.44892 18.4178 8.59623C18.0932 7.74354 17.5986 6.96576 16.9641 6.31016C15.7274 5.10157 14.1602 4.47891 12.3172 4.47891V4.47969ZM8.19923 5.1961C7.97809 5.16379 7.75256 5.20818 7.56016 5.32188H7.54376C7.09709 5.58371 6.69471 5.91463 6.35157 6.30235C6.06641 6.63204 5.91173 6.96563 5.8711 7.28673C5.84688 7.47813 5.86329 7.66954 5.92032 7.85235L5.94063 7.86485C6.26173 8.8086 6.68126 9.71641 7.19376 10.5711C7.85393 11.7718 8.66638 12.8823 9.61094 13.875L9.63907 13.9156L9.6836 13.9484L9.71173 13.9813L9.74454 14.0094C10.7408 14.9567 11.854 15.773 13.057 16.4383C14.432 17.1867 15.2664 17.5406 15.7672 17.6875V17.6953C15.9141 17.7398 16.0477 17.7602 16.182 17.7602C16.6088 17.7289 17.0129 17.5556 17.3297 17.268C17.7157 16.9248 18.0429 16.5207 18.2984 16.0719V16.0641C18.5383 15.6125 18.457 15.1852 18.1109 14.8961C17.4178 14.2902 16.6683 13.7521 15.8727 13.2891C15.3398 13 14.7984 13.175 14.5789 13.468L14.1109 14.0578C13.8711 14.3508 13.4352 14.3102 13.4352 14.3102L13.4227 14.318C10.1719 13.4875 9.3047 10.1961 9.3047 10.1961C9.3047 10.1961 9.26407 9.74844 9.56485 9.52032L10.1508 9.04844C10.4313 8.82032 10.6266 8.27969 10.3258 7.7461C9.86594 6.94934 9.32899 6.19966 8.72266 5.50782C8.59011 5.34472 8.40415 5.23375 8.19766 5.19454L8.19923 5.1961ZM12.8578 6.12423C12.443 6.12423 12.443 6.75079 12.8617 6.75079C13.3776 6.75916 13.8867 6.8691 14.36 7.07433C14.8334 7.27956 15.2616 7.57606 15.6203 7.94688C15.9475 8.30783 16.199 8.73077 16.3597 9.19066C16.5205 9.65055 16.5873 10.138 16.5563 10.6242C16.5577 10.7065 16.5913 10.785 16.6498 10.8428C16.7084 10.9006 16.7872 10.9332 16.8695 10.9336L16.882 10.95C16.9649 10.9494 17.0443 10.9162 17.1029 10.8576C17.1615 10.799 17.1947 10.7196 17.1953 10.6367C17.2234 9.39532 16.8375 8.35391 16.0805 7.51954C15.3195 6.68516 14.2578 6.21719 12.9024 6.12423H12.8578ZM13.3711 7.8086C12.9438 7.7961 12.9274 8.43516 13.3508 8.44766C14.3805 8.50079 14.8805 9.0211 14.9461 10.0914C14.9475 10.1727 14.9807 10.2501 15.0385 10.3072C15.0963 10.3643 15.1742 10.3965 15.2555 10.3969H15.268C15.3098 10.3951 15.3508 10.385 15.3886 10.3672C15.4264 10.3494 15.4603 10.3242 15.4883 10.2932C15.5163 10.2621 15.5379 10.2258 15.5517 10.1863C15.5655 10.1468 15.5713 10.105 15.5688 10.0633C15.4953 8.66797 14.7344 7.88204 13.3836 7.80938H13.3711V7.8086Z" />
</svg>
