<?xml version="1.0" encoding="utf-8"?><svg viewBox="0 0 126 146" xmlns="http://www.w3.org/2000/svg" xmlns:xlink="http://www.w3.org/1999/xlink"><style>:root>svg{display:none}:root>svg:target{display:block}</style><svg fill="none" viewBox="0 0 85 146" id="arrow-benefits" xmlns="http://www.w3.org/2000/svg"><path d="M43 1v144c4.333-15.667 18.6-49.1 41-57.5M42.5 1v144c-4.333-15.667-18.6-49.1-41-57.5" stroke="#B69556" stroke-width="2" stroke-linecap="round" stroke-linejoin="round"/></svg><svg viewBox="0 0 27 24" id="arrow-slider" xmlns="http://www.w3.org/2000/svg"><path d="M.94 10.94a1.5 1.5 0 000 2.12l9.545 9.547a1.5 1.5 0 102.122-2.122L4.12 12l8.486-8.485a1.5 1.5 0 10-2.122-2.122L.94 10.94zM27 10.5H2v3h25v-3z"/></svg><svg fill="none" viewBox="0 0 60 21" id="circle" xmlns="http://www.w3.org/2000/svg"><circle cx="10.127" cy="10.127" r="10" fill="#B69556"/><circle cx="40" cy="10" r="10" fill="#B69556"/></svg><svg fill="none" viewBox="0 0 126 126" id="dollar" xmlns="http://www.w3.org/2000/svg"><circle cx="63" cy="63" r="61" stroke="#B69556" stroke-width="4"/><path d="M60.444 100V36h4.112v64h-4.112zm13.838-44.8c-.301-2.533-1.52-4.5-3.66-5.9-2.14-1.4-4.763-2.1-7.871-2.1-2.273 0-4.262.367-5.966 1.1-1.688.733-3.009 1.742-3.961 3.025-.936 1.283-1.404 2.742-1.404 4.375 0 1.367.326 2.542.978 3.525a8.664 8.664 0 002.557 2.425 18.342 18.342 0 003.258 1.575c1.137.4 2.181.725 3.134.975l5.214 1.4c1.337.35 2.824.833 4.462 1.45a20.618 20.618 0 014.738 2.525c1.52 1.05 2.774 2.4 3.76 4.05C80.507 75.275 81 77.3 81 79.7c0 2.767-.727 5.267-2.18 7.5-1.438 2.233-3.544 4.008-6.318 5.325-2.757 1.317-6.108 1.975-10.052 1.975-3.677 0-6.86-.592-9.55-1.775-2.675-1.183-4.78-2.833-6.318-4.95C45.062 85.658 44.2 83.2 44 80.4h6.417c.167 1.933.82 3.533 1.956 4.8 1.153 1.25 2.607 2.183 4.361 2.8 1.772.6 3.677.9 5.716.9 2.373 0 4.504-.383 6.392-1.15 1.889-.783 3.384-1.867 4.487-3.25 1.103-1.4 1.655-3.033 1.655-4.9 0-1.7-.477-3.083-1.43-4.15-.952-1.067-2.205-1.933-3.76-2.6a39.578 39.578 0 00-5.038-1.75l-6.317-1.8c-4.01-1.15-7.186-2.792-9.526-4.925s-3.51-4.925-3.51-8.375c0-2.867.778-5.367 2.332-7.5 1.571-2.15 3.677-3.817 6.317-5 2.657-1.2 5.624-1.8 8.9-1.8 3.308 0 6.25.592 8.823 1.775 2.574 1.167 4.612 2.767 6.117 4.8 1.52 2.033 2.323 4.342 2.406 6.925h-6.016z" fill="#DFC695"/></svg><svg fill="none" viewBox="0 0 126 126" id="grafic" xmlns="http://www.w3.org/2000/svg"><path d="M32 32v62h63" stroke="#DFC695" stroke-width="4" stroke-linecap="square"/><path d="M40.87 80.013l-.986 1.13 2.258 1.974.987-1.13-2.258-1.974zm20.04-20.65l.976-1.138-1.128-.968-.978 1.12 1.13.987zm12.605 10.819l-.977 1.138 1.122.963.98-1.108-1.125-.993zM94 47l-16.422 5.506 12.979 11.469L94 47zM43.13 81.987l18.908-21.636-2.258-1.974-18.91 21.636 2.26 1.974zm16.802-21.485L72.538 71.32l1.954-2.276-12.606-10.819-1.954 2.277zM74.64 71.175L86.185 58.11l-2.248-1.986L72.39 69.189l2.248 1.986z" fill="#DFC695"/><circle cx="63" cy="63" r="61" stroke="#B69556" stroke-width="4"/></svg><svg fill="none" viewBox="0 0 126 126" id="user" xmlns="http://www.w3.org/2000/svg"><circle cx="63" cy="63" r="61" stroke="#B69556" stroke-width="4"/><path d="M63 65.187c-9.246 0-16.77-7.525-16.77-16.77 0-9.246 7.524-16.771 16.77-16.771 9.246 0 16.77 7.525 16.77 16.77 0 9.246-7.524 16.771-16.77 16.771zm0-29.166c-6.825 0-12.396 5.57-12.396 12.396 0 6.825 5.571 12.395 12.396 12.395 6.825 0 12.396-5.57 12.396-12.395 0-6.825-5.571-12.396-12.396-12.396zM37.946 94.354a2.203 2.203 0 01-2.187-2.187c0-12.454 12.22-22.605 27.241-22.605 2.946 0 5.834.38 8.634 1.167a2.172 2.172 0 011.516 2.683 2.172 2.172 0 01-2.683 1.517c-2.392-.67-4.9-.992-7.467-.992-12.6 0-22.866 8.167-22.866 18.23a2.203 2.203 0 01-2.188 2.187z" fill="#DFC695"/><path d="M80.5 94.354c-4.842 0-9.392-2.567-11.842-6.737-1.312-2.1-2.012-4.58-2.012-7.117 0-4.258 1.896-8.196 5.192-10.821a13.979 13.979 0 018.662-3.033c7.642 0 13.854 6.212 13.854 13.854 0 2.537-.7 5.017-2.012 7.146a12.888 12.888 0 01-2.771 3.266c-2.421 2.217-5.659 3.442-9.071 3.442zm0-23.333c-2.158 0-4.2.729-5.92 2.1a9.402 9.402 0 00-3.56 7.379c0 1.72.468 3.412 1.372 4.87 1.691 2.859 4.812 4.61 8.108 4.61 2.304 0 4.52-.847 6.213-2.363.758-.642 1.4-1.4 1.866-2.217a9.183 9.183 0 001.4-4.9c0-5.22-4.258-9.48-9.479-9.48z" fill="#DFC695"/><path d="M78.837 85.575a2.163 2.163 0 01-1.546-.641l-2.887-2.888a2.201 2.201 0 010-3.092 2.2 2.2 0 013.092 0l1.4 1.4 4.666-4.316c.875-.817 2.275-.759 3.092.116.817.875.758 2.275-.117 3.092l-6.212 5.746c-.438.379-.963.583-1.488.583z" fill="#DFC695"/></svg></svg>