<?xml version="1.0" encoding="utf-8"?><svg viewBox="0 0 126 146" xmlns="http://www.w3.org/2000/svg" xmlns:xlink="http://www.w3.org/1999/xlink"><style>:root>svg{display:none}:root>svg:target{display:block}</style><svg fill="none" viewBox="0 0 85 146" id="arrow-benefits" xmlns="http://www.w3.org/2000/svg"><path d="M43 1v144c4.333-15.667 18.6-49.1 41-57.5M42.5 1v144c-4.333-15.667-18.6-49.1-41-57.5" stroke="#B69556" stroke-width="2" stroke-linecap="round" stroke-linejoin="round"/></svg><svg viewBox="0 0 27 24" id="arrow-slider" xmlns="http://www.w3.org/2000/svg"><path d="M.94 10.94a1.5 1.5 0 000 2.12l9.545 9.547a1.5 1.5 0 102.122-2.122L4.12 12l8.486-8.485a1.5 1.5 0 10-2.122-2.122L.94 10.94zM27 10.5H2v3h25v-3z"/></svg><svg fill="none" viewBox="0 0 60 21" id="circle" xmlns="http://www.w3.org/2000/svg"><circle cx="10.127" cy="10.127" r="10" fill="#B69556"/><circle cx="40" cy="10" r="10" fill="#B69556"/></svg><svg fill="none" viewBox="0 0 126 126" id="dollar" xmlns="http://www.w3.org/2000/svg"><circle cx="63" cy="63" r="61" stroke="#B69556" stroke-width="4"/><path d="M60.444 100V36h4.112v64h-4.112zm13.838-44.8c-.301-2.533-1.52-4.5-3.66-5.9-2.14-1.4-4.763-2.1-7.871-2.1-2.273 0-4.262.367-5.966 1.1-1.688.733-3.009 1.742-3.961 3.025-.936 1.283-1.404 2.742-1.404 4.375 0 1.367.326 2.542.978 3.525a8.664 8.664 0 002.557 2.425 18.342 18.342 0 003.258 1.575c1.137.4 2.181.725 3.134.975l5.214 1.4c1.337.35 2.824.833 4.462 1.45a20.618 20.618 0 014.738 2.525c1.52 1.05 2.774 2.4 3.76 4.05C80.507 75.275 81 77.3 81 79.7c0 2.767-.727 5.267-2.18 7.5-1.438 2.233-3.544 4.008-6.318 5.325-2.757 1.317-6.108 1.975-10.052 1.975-3.677 0-6.86-.592-9.55-1.775-2.675-1.183-4.78-2.833-6.318-4.95C45.062 85.658 44.2 83.2 44 80.4h6.417c.167 1.933.82 3.533 1.956 4.8 1.153 1.25 2.607 2.183 4.361 2.8 1.772.6 3.677.9 5.716.9 2.373 0 4.504-.383 6.392-1.15 1.889-.783 3.384-1.867 4.487-3.25 1.103-1.4 1.655-3.033 1.655-4.9 0-1.7-.477-3.083-1.43-4.15-.952-1.067-2.205-1.933-3.76-2.6a39.578 39.578 0 00-5.038-1.75l-6.317-1.8c-4.01-1.15-7.186-2.792-9.526-4.925s-3.51-4.925-3.51-8.375c0-2.867.778-5.367 2.332-7.5 1.571-2.15 3.677-3.817 6.317-5 2.657-1.2 5.624-1.8 8.9-1.8 3.308 0 6.25.592 8.823 1.775 2.574 1.167 4.612 2.767 6.117 4.8 1.52 2.033 2.323 4.342 2.406 6.925h-6.016z" fill="#DFC695"/></svg><svg fill="none" viewBox="0 0 126 126" id="grafic" xmlns="http://www.w3.org/2000/svg"><path d="M32 32v62h63" stroke="#DFC695" stroke-width="4" stroke-linecap="square"/><path d="M40.87 80.013l-.986 1.13 2.258 1.974.987-1.13-2.258-1.974zm20.04-20.65l.976-1.138-1.128-.968-.978 1.12 1.13.987zm12.605 10.819l-.977 1.138 1.122.963.98-1.108-1.125-.993zM94 47l-16.422 5.506 12.979 11.469L94 47zM43.13 81.987l18.908-21.636-2.258-1.974-18.91 21.636 2.26 1.974zm16.802-21.485L72.538 71.32l1.954-2.276-12.606-10.819-1.954 2.277zM74.64 71.175L86.185 58.11l-2.248-1.986L72.39 69.189l2.248 1.986z" fill="#DFC695"/><circle cx="63" cy="63" r="61" stroke="#B69556" stroke-width="4"/></svg><svg viewBox="0 0 20 25" id="map" xmlns="http://www.w3.org/2000/svg"><path d="M9.72 25a41.353 41.353 0 01-4.86-4.903C2.638 17.443 0 13.49 0 9.725A9.72 9.72 0 0116.597 2.85a9.658 9.658 0 012.844 6.875c0 3.766-2.639 7.718-4.86 10.372A41.353 41.353 0 019.72 25zm0-19.44a4.166 4.166 0 100 8.331 4.166 4.166 0 000-8.332z"/></svg><svg viewBox="0 0 25 25" id="phone" xmlns="http://www.w3.org/2000/svg"><path d="M10.392 14.297a14.955 14.955 0 005.432 3.516l2.768-2.202a.492.492 0 01.558 0l5.138 3.31a1.468 1.468 0 01.243 2.335l-2.408 2.378a2.936 2.936 0 01-2.665.786 25.76 25.76 0 01-12.59-6.607A24.805 24.805 0 01.063 5.458 2.775 2.775 0 01.87 2.852L3.366.444a1.468 1.468 0 012.29.235l3.422 5.073a.463.463 0 010 .55l-2.254 2.71a14.5 14.5 0 003.568 5.285z"/></svg><svg fill="none" viewBox="0 0 126 126" id="user" xmlns="http://www.w3.org/2000/svg"><circle cx="63" cy="63" r="61" stroke="#B69556" stroke-width="4"/><path d="M63 65.187c-9.246 0-16.77-7.525-16.77-16.77 0-9.246 7.524-16.771 16.77-16.771 9.246 0 16.77 7.525 16.77 16.77 0 9.246-7.524 16.771-16.77 16.771zm0-29.166c-6.825 0-12.396 5.57-12.396 12.396 0 6.825 5.571 12.395 12.396 12.395 6.825 0 12.396-5.57 12.396-12.395 0-6.825-5.571-12.396-12.396-12.396zM37.946 94.354a2.203 2.203 0 01-2.187-2.187c0-12.454 12.22-22.605 27.241-22.605 2.946 0 5.834.38 8.634 1.167a2.172 2.172 0 011.516 2.683 2.172 2.172 0 01-2.683 1.517c-2.392-.67-4.9-.992-7.467-.992-12.6 0-22.866 8.167-22.866 18.23a2.203 2.203 0 01-2.188 2.187z" fill="#DFC695"/><path d="M80.5 94.354c-4.842 0-9.392-2.567-11.842-6.737-1.312-2.1-2.012-4.58-2.012-7.117 0-4.258 1.896-8.196 5.192-10.821a13.979 13.979 0 018.662-3.033c7.642 0 13.854 6.212 13.854 13.854 0 2.537-.7 5.017-2.012 7.146a12.888 12.888 0 01-2.771 3.266c-2.421 2.217-5.659 3.442-9.071 3.442zm0-23.333c-2.158 0-4.2.729-5.92 2.1a9.402 9.402 0 00-3.56 7.379c0 1.72.468 3.412 1.372 4.87 1.691 2.859 4.812 4.61 8.108 4.61 2.304 0 4.52-.847 6.213-2.363.758-.642 1.4-1.4 1.866-2.217a9.183 9.183 0 001.4-4.9c0-5.22-4.258-9.48-9.479-9.48z" fill="#DFC695"/><path d="M78.837 85.575a2.163 2.163 0 01-1.546-.641l-2.887-2.888a2.201 2.201 0 010-3.092 2.2 2.2 0 013.092 0l1.4 1.4 4.666-4.316c.875-.817 2.275-.759 3.092.116.817.875.758 2.275-.117 3.092l-6.212 5.746c-.438.379-.963.583-1.488.583z" fill="#DFC695"/></svg><svg viewBox="0 0 25 25" id="viber" xmlns="http://www.w3.org/2000/svg"><path d="M11.873.004C9.867.028 5.553.358 3.141 2.57 1.347 4.35.721 6.978.647 10.23.586 13.468.513 19.55 6.376 21.207v2.523s-.037 1.01.63 1.216c.822.26 1.29-.516 2.071-1.35l1.457-1.648c4.012.333 7.085-.436 7.439-.55.814-.26 5.399-.846 6.148-6.93.769-6.282-.374-10.24-2.437-12.031h-.013C21.048 1.863 18.546.04 12.956.02c0 0-.415-.029-1.083-.017zm.07 1.766c.569-.004.915.02.915.02 4.732.013 6.99 1.437 7.523 1.917 1.738 1.49 2.633 5.058 1.978 10.303-.623 5.086-4.342 5.408-5.03 5.627-.293.094-3 .761-6.409.542 0 0-2.539 3.064-3.332 3.853-.126.138-.273.179-.367.159-.134-.033-.175-.2-.167-.428l.024-4.186c-4.973-1.375-4.68-6.564-4.626-9.274.06-2.71.57-4.927 2.083-6.429 2.038-1.843 5.7-2.091 7.406-2.104h.001zm.374 2.71a.31.31 0 00-.313.31c0 .174.142.312.313.312a5.87 5.87 0 014.2 1.657c1.135 1.102 1.688 2.583 1.709 4.52 0 .171.138.313.313.313v-.012a.312.312 0 00.313-.31 6.729 6.729 0 00-1.888-4.96C15.727 5.102 14.16 4.48 12.317 4.48zM8.2 5.196a.978.978 0 00-.639.126h-.016c-.447.262-.85.593-1.192.98-.286.33-.44.664-.48.985a1.33 1.33 0 00.048.565l.02.013c.322.944.741 1.851 1.254 2.706a15.92 15.92 0 002.417 3.304l.028.04.045.033.028.033.033.028a16.15 16.15 0 003.312 2.43c1.375.748 2.21 1.102 2.71 1.248v.008c.147.045.28.065.415.065.427-.031.83-.204 1.148-.492.386-.343.713-.747.968-1.196v-.008c.24-.451.159-.879-.187-1.168a14.423 14.423 0 00-2.238-1.607c-.533-.289-1.075-.114-1.294.179l-.468.59c-.24.293-.676.252-.676.252l-.012.008c-3.251-.83-4.118-4.122-4.118-4.122s-.04-.448.26-.676l.586-.472c.28-.228.476-.768.175-1.302a14.057 14.057 0 00-1.603-2.238.89.89 0 00-.525-.313l.001.001zm4.659.928c-.415 0-.415.627.004.627a3.926 3.926 0 012.758 1.196 3.64 3.64 0 01.936 2.677.315.315 0 00.313.31l.013.016a.316.316 0 00.313-.313c.028-1.242-.358-2.283-1.114-3.117-.761-.835-1.823-1.303-3.179-1.396h-.044zm.513 1.685c-.427-.013-.444.626-.02.639 1.03.053 1.53.573 1.595 1.643a.31.31 0 00.31.306h.012a.315.315 0 00.3-.334c-.073-1.395-.834-2.181-2.184-2.254h-.013z"/></svg><svg viewBox="0 0 25 25" id="whatsapp" xmlns="http://www.w3.org/2000/svg"><path d="M.005 25l1.69-6.21A12.442 12.442 0 010 12.5C0 5.596 5.596 0 12.5 0S25 5.596 25 12.5 19.404 25 12.5 25a12.443 12.443 0 01-6.287-1.694L.005 25zM7.989 6.635c-.162.01-.32.053-.464.125-.136.077-.26.173-.367.285-.15.141-.235.264-.327.383a3.411 3.411 0 00-.706 2.097c.003.612.163 1.209.413 1.766C7.048 12.42 7.89 13.613 9 14.72c.268.266.529.534.81.782a11.809 11.809 0 004.8 2.558l.711.108c.232.013.463-.005.695-.016.365-.019.72-.117 1.042-.288.163-.085.323-.177.479-.276 0 0 .053-.035.156-.112.169-.125.272-.214.412-.36.104-.107.194-.234.263-.377.097-.204.195-.593.235-.917.03-.247.021-.382.017-.466-.005-.134-.116-.273-.237-.331l-.728-.326s-1.087-.474-1.751-.777a.623.623 0 00-.221-.051.602.602 0 00-.473.159v-.003c-.006 0-.09.072-.994 1.167a.437.437 0 01-.46.162 1.78 1.78 0 01-.238-.082c-.155-.066-.209-.09-.315-.137l-.007-.002a7.511 7.511 0 01-1.962-1.25c-.157-.138-.304-.288-.454-.433a7.867 7.867 0 01-1.275-1.585l-.073-.118a1.154 1.154 0 01-.128-.257c-.047-.184.076-.331.076-.331s.304-.332.445-.512c.118-.15.228-.306.329-.467.148-.237.194-.481.116-.67-.35-.855-.712-1.706-1.085-2.551-.073-.167-.292-.287-.491-.311-.067-.008-.135-.015-.202-.02a4.231 4.231 0 00-.504.005v.001z"/></svg></svg>