<svg width="126" height="126" viewBox="0 0 126 126" fill="none" xmlns="http://www.w3.org/2000/svg">
<circle cx="63" cy="63" r="61" stroke="#B69556" stroke-width="4"/>
<path d="M63 65.1874C53.7542 65.1874 46.2292 57.6624 46.2292 48.4166C46.2292 39.1708 53.7542 31.6458 63 31.6458C72.2459 31.6458 79.7709 39.1708 79.7709 48.4166C79.7709 57.6624 72.2459 65.1874 63 65.1874ZM63 36.0208C56.175 36.0208 50.6042 41.5916 50.6042 48.4166C50.6042 55.2416 56.175 60.8124 63 60.8124C69.825 60.8124 75.3959 55.2416 75.3959 48.4166C75.3959 41.5916 69.825 36.0208 63 36.0208Z" fill="#DFC695"/>
<path d="M37.9463 94.3542C36.7505 94.3542 35.7588 93.3625 35.7588 92.1667C35.7588 79.7125 47.9796 69.5625 63.0004 69.5625C65.9463 69.5625 68.8338 69.9417 71.6338 70.7292C72.8004 71.0501 73.4713 72.2459 73.1505 73.4125C72.8296 74.5792 71.6338 75.2501 70.4671 74.9292C68.0754 74.2584 65.5671 73.9375 63.0004 73.9375C50.4004 73.9375 40.1338 82.1042 40.1338 92.1667C40.1338 93.3625 39.1421 94.3542 37.9463 94.3542Z" fill="#DFC695"/>
<path d="M80.5 94.3541C75.6583 94.3541 71.1083 91.7874 68.6583 87.6166C67.3458 85.5166 66.6458 83.0374 66.6458 80.4999C66.6458 76.2416 68.5416 72.304 71.8375 69.679C74.2875 67.7249 77.3791 66.6458 80.5 66.6458C88.1416 66.6458 94.3541 72.8583 94.3541 80.4999C94.3541 83.0374 93.6541 85.5166 92.3416 87.6458C91.6125 88.8708 90.6791 89.9791 89.5708 90.9124C87.1499 93.1291 83.9125 94.3541 80.5 94.3541ZM80.5 71.0208C78.3416 71.0208 76.3 71.7498 74.5792 73.1207C72.3333 74.8998 71.0208 77.6124 71.0208 80.4999C71.0208 82.2208 71.4875 83.9124 72.3917 85.3707C74.0833 88.229 77.2041 89.9791 80.5 89.9791C82.8041 89.9791 85.0208 89.1333 86.7125 87.6166C87.4708 86.9749 88.1124 86.2166 88.5791 85.3999C89.5124 83.9124 89.9791 82.2208 89.9791 80.4999C89.9791 75.2791 85.7208 71.0208 80.5 71.0208Z" fill="#DFC695"/>
<path d="M78.8371 85.5752C78.283 85.5752 77.7288 85.3711 77.2913 84.9336L74.4038 82.0462C73.558 81.2003 73.558 79.8001 74.4038 78.9543C75.2497 78.1085 76.6497 78.1085 77.4955 78.9543L78.8955 80.3544L83.5621 76.0376C84.4371 75.221 85.8371 75.2794 86.6538 76.1544C87.4705 77.0294 87.4122 78.4294 86.5372 79.2461L80.3247 84.9918C79.8872 85.371 79.3621 85.5752 78.8371 85.5752Z" fill="#DFC695"/>
</svg>
