<svg width="960" height="1029" viewBox="0 0 960 1029" fill="none" xmlns="http://www.w3.org/2000/svg">
<path d="M628.025 387.355C719.376 494.072 785.395 604.908 818.306 697.808C834.763 744.261 842.923 786.178 841.868 820.826C840.812 855.474 830.548 882.743 810.28 900.093C790.011 917.443 761.486 923.378 727.09 919.078C692.693 914.778 652.536 900.25 609.176 876.826C522.464 829.981 423.136 747.658 331.785 640.941C240.434 534.224 174.415 423.388 141.503 330.488C125.047 284.035 116.886 242.118 117.942 207.47C118.998 172.822 129.261 145.553 149.53 128.203C169.799 110.853 198.324 104.918 232.72 109.218C267.117 113.519 307.274 128.046 350.633 151.47C437.346 198.315 536.674 280.638 628.025 387.355Z" stroke="url(#paint0_diamond_56_67)" stroke-opacity="0.5" stroke-width="2"/>
<circle cx="396.741" cy="713" r="10" fill="#B69556"/>
<defs>
<radialGradient id="paint0_diamond_56_67" cx="0" cy="0" r="1" gradientUnits="userSpaceOnUse" gradientTransform="translate(479.905 514.148) rotate(48.599) scale(1233.64 474.946)">
<stop stop-color="#D1B680"/>
<stop offset="1" stop-color="#D1B680" stop-opacity="0"/>
</radialGradient>
</defs>
</svg>
