<?xml version="1.0" standalone="no"?>
<!DOCTYPE svg PUBLIC "-//W3C//DTD SVG 20010904//EN"
 "http://www.w3.org/TR/2001/REC-SVG-20010904/DTD/svg10.dtd">
<svg version="1.0" xmlns="http://www.w3.org/2000/svg"
 width="350.000000pt" height="350.000000pt" viewBox="0 0 350.000000 350.000000"
 preserveAspectRatio="xMidYMid meet">
<metadata>
Created by potrace 1.14, written by Peter Selinger 2001-2017
</metadata>
<g transform="translate(0.000000,350.000000) scale(0.100000,-0.100000)"
fill="#000000" stroke="none">
<path d="M0 1750 l0 -1750 1750 0 1750 0 0 1750 0 1750 -1750 0 -1750 0 0
-1750z m1172 1169 c84 -17 211 -83 251 -130 40 -46 41 -45 53 56 8 71 18 89
44 75 16 -9 18 -29 19 -242 0 -128 1 -236 1 -240 0 -4 204 -8 453 -10 442 -4
454 -4 522 -27 347 -115 553 -399 572 -791 15 -298 -88 -588 -283 -800 -73
-79 -199 -161 -299 -197 l-80 -28 -447 -3 -448 -3 0 29 0 30 63 -5 c57 -5 66
-3 93 20 l29 25 0 827 0 827 -29 25 c-27 23 -36 25 -93 20 l-63 -5 0 29 c0 24
-4 29 -25 29 -19 0 -25 5 -25 23 -1 49 -32 166 -60 224 -38 77 -121 155 -189
178 -64 21 -183 21 -247 0 -100 -34 -179 -118 -211 -224 -26 -84 -23 -223 4
-284 44 -96 112 -147 357 -267 307 -151 369 -193 445 -303 130 -189 93 -456
-88 -636 -140 -140 -313 -189 -516 -146 -108 23 -164 56 -248 145 l-75 79 -6
-31 c-18 -91 -26 -108 -51 -108 l-25 0 0 340 0 340 35 0 35 0 0 -67 c0 -220
71 -442 175 -549 153 -156 406 -163 537 -14 131 148 156 397 56 552 -50 78
-121 134 -252 197 -67 33 -186 90 -266 129 -118 57 -155 80 -197 123 -69 70
-80 87 -104 156 -23 67 -28 214 -9 285 49 180 204 320 390 351 51 9 151 7 202
-4z"/>
<path d="M1963 2376 c-17 -8 -36 -24 -43 -35 -15 -30 -15 -1642 0 -1672 21
-38 69 -49 213 -49 169 0 231 11 337 62 70 33 100 56 170 127 173 176 250 390
250 699 0 336 -148 652 -373 796 -112 72 -142 79 -342 83 -141 3 -187 0 -212
-11z"/>
</g>
</svg>
