<svg width="653" height="1029" viewBox="0 0 653 1029" fill="none" xmlns="http://www.w3.org/2000/svg">
<path d="M320.283 387.355C411.634 494.072 477.653 604.908 510.565 697.808C527.022 744.261 535.182 786.178 534.126 820.827C533.07 855.475 522.807 882.743 502.538 900.093C482.27 917.443 453.745 923.379 419.348 919.078C384.952 914.778 344.794 900.25 301.435 876.826C214.722 829.981 115.394 747.658 24.0434 640.941C-67.3077 534.224 -133.327 423.388 -166.238 330.489C-182.695 284.035 -190.855 242.118 -189.799 207.47C-188.744 172.822 -178.48 145.553 -158.211 128.203C-137.943 110.853 -109.418 104.918 -75.0216 109.218C-40.6248 113.519 -0.467661 128.046 42.8918 151.47C129.604 198.316 228.932 280.638 320.283 387.355Z" stroke="url(#paint0_diamond_56_67)" stroke-opacity="0.5" stroke-width="2"/>
<circle cx="89" cy="713" r="10" fill="#B69556"/>
<defs>
<radialGradient id="paint0_diamond_56_67" cx="0" cy="0" r="1" gradientUnits="userSpaceOnUse" gradientTransform="translate(172.163 514.148) rotate(48.599) scale(1233.64 474.946)">
<stop stop-color="#D1B680"/>
<stop offset="1" stop-color="#D1B680" stop-opacity="0"/>
</radialGradient>
</defs>
</svg>
