<svg width="1951" height="1200" viewBox="0 0 1951 1200" fill="none" xmlns="http://www.w3.org/2000/svg">
<path d="M1 739.743C73.1377 646.537 276.56 477.73 513.149 548.153C749.737 618.575 882.459 389.358 919.247 265.946C954.276 164.189 1086.61 21.7285 1335.69 265.946C1584.78 510.164 1703.89 191.073 1732.3 1" stroke="#7E5402"/>
<path d="M128.403 1198C165.205 1073.95 321.438 840.518 651.96 899.235C982.482 957.951 1108.24 727.977 1129.8 605.65C1152.8 530.527 1253.83 417.065 1473.95 564.203C1694.07 711.34 1880.78 530.527 1946.62 421.728" stroke="#DFC695" stroke-width="10"/>
<path d="M7.06683 761.564C77.5218 666.889 278.697 495.006 519.759 564.871C760.82 634.736 893.211 405.482 929.273 282.123C963.729 181.633 1094.57 40.554 1342.27 280.149C1589.98 519.744 1712.31 207.237 1742.51 21.0347" stroke="#835A09" stroke-width="1.42857"/>
<path d="M13.1337 783.386C81.906 687.242 280.834 512.281 526.369 581.589C771.904 650.897 903.962 421.607 939.3 298.299C973.183 199.078 1102.53 59.3796 1348.86 294.352C1595.19 529.323 1720.73 223.402 1752.72 41.0693" stroke="#885F10" stroke-width="1.85714"/>
<path d="M19.2005 805.208C86.2901 707.595 282.971 529.557 532.979 598.307C782.987 667.057 914.714 437.732 949.326 314.475C982.637 216.523 1110.5 78.205 1355.44 308.554C1600.39 538.903 1729.16 239.566 1762.92 61.1039" stroke="#8C6517" stroke-width="2.28571"/>
<path d="M25.2673 827.03C90.6743 727.948 285.108 546.833 539.589 615.025C794.07 683.218 925.465 453.857 959.352 330.652C992.09 233.967 1118.46 97.0307 1362.03 322.757C1605.59 548.483 1737.58 255.731 1773.13 81.1387" stroke="#916A1E" stroke-width="2.71429"/>
<path d="M31.3342 848.852C95.0584 748.301 287.245 564.108 546.199 631.744C805.153 699.379 936.216 469.981 969.379 346.828C1001.54 251.412 1126.42 115.856 1368.61 336.96C1610.8 558.063 1746 271.895 1783.33 101.173" stroke="#956F25" stroke-width="3.14286"/>
<path d="M37.401 870.673C99.4426 768.653 289.382 581.384 552.809 648.462C816.236 715.54 946.968 486.106 979.405 363.004C1011 268.857 1134.38 134.682 1375.19 351.162C1616 567.643 1754.43 288.06 1793.54 121.208" stroke="#9A752C" stroke-width="3.57143"/>
<path d="M43.4678 892.495C103.827 789.006 291.519 598.659 559.419 665.18C827.319 731.7 957.719 502.231 989.432 379.181C1020.45 286.301 1142.35 153.507 1381.78 365.365C1621.21 577.223 1762.85 304.224 1803.74 141.243" stroke="#9F7A33" stroke-width="4"/>
<path d="M49.5347 914.317C108.211 809.359 293.656 615.935 566.029 681.898C838.402 747.861 968.47 518.355 999.458 395.357C1029.91 303.746 1150.31 172.333 1388.36 379.568C1626.41 586.803 1771.27 320.389 1813.95 161.277" stroke="#A3803A" stroke-width="4.42857"/>
<path d="M55.6015 936.139C112.595 829.712 295.794 633.21 572.639 698.616C849.485 764.022 979.222 534.48 1009.48 411.533C1039.36 321.191 1158.27 191.158 1394.95 393.77C1631.62 596.382 1779.7 336.553 1824.15 181.312" stroke="#A88541" stroke-width="4.85714"/>
<path d="M61.6683 957.96C116.979 850.065 297.931 650.486 579.249 715.334C860.568 780.183 989.973 550.605 1019.51 427.71C1048.81 338.635 1166.24 209.984 1401.53 407.973C1636.82 605.962 1788.12 352.718 1834.36 201.347" stroke="#AC8B48" stroke-width="5.28571"/>
<path d="M67.7351 979.782C121.363 870.418 300.068 667.762 585.859 732.053C871.651 796.343 1000.72 566.729 1029.54 443.886C1058.27 356.08 1174.2 228.809 1408.11 422.176C1642.03 615.542 1796.54 368.882 1844.56 221.381" stroke="#B1904F" stroke-width="5.71429"/>
<path d="M73.802 1001.6C125.747 890.771 302.205 685.037 592.469 748.771C882.734 812.504 1011.48 582.854 1039.56 460.063C1067.72 373.525 1182.16 247.635 1414.7 436.378C1647.23 625.122 1804.97 385.046 1854.77 241.416" stroke="#B69556" stroke-width="6.14286"/>
<path d="M79.8688 1023.43C130.132 911.123 304.342 702.313 599.079 765.489C893.817 828.665 1022.23 598.979 1049.59 476.239C1077.17 390.969 1190.13 266.461 1421.28 450.581C1652.43 634.702 1813.39 401.211 1864.98 261.45" stroke="#BA9B5D" stroke-width="6.57143"/>
<path d="M85.9357 1045.25C134.516 931.476 306.479 719.588 605.689 782.207C904.9 844.826 1032.98 615.104 1059.62 492.415C1086.63 408.414 1198.09 285.286 1427.86 464.784C1657.64 644.281 1821.81 417.375 1875.18 281.485" stroke="#BFA064" stroke-width="7"/>
<path d="M92.0024 1067.07C138.9 951.829 308.616 736.864 612.299 798.925C915.983 860.987 1043.73 631.229 1069.64 508.592C1096.08 425.859 1206.05 304.112 1434.45 478.987C1662.84 653.861 1830.24 433.54 1885.39 301.52" stroke="#C3A66B" stroke-width="7.42857"/>
<path d="M98.0693 1088.89C143.284 972.182 310.753 754.14 618.91 815.644C927.066 877.147 1054.48 647.353 1079.67 524.768C1105.53 443.303 1214.02 322.937 1441.03 493.189C1668.05 663.441 1838.66 449.704 1895.59 321.554" stroke="#C8AB72" stroke-width="7.85714"/>
<path d="M104.136 1110.71C147.668 992.535 312.89 771.415 625.52 832.362C938.15 893.308 1065.23 663.478 1089.7 540.944C1114.99 460.748 1221.98 341.763 1447.62 507.392C1673.25 673.021 1847.09 465.869 1905.8 341.589" stroke="#CDB079" stroke-width="8.28571"/>
<path d="M110.203 1132.53C152.052 1012.89 315.027 788.691 632.13 849.08C949.232 909.469 1075.98 679.603 1099.72 557.121C1124.44 478.193 1229.94 360.588 1454.2 521.595C1678.46 682.601 1855.51 482.033 1916 361.624" stroke="#D1B680" stroke-width="8.71429"/>
<path d="M116.27 1154.36C156.437 1033.24 317.164 805.966 638.74 865.798C960.316 925.63 1086.74 695.727 1109.75 573.297C1133.9 495.637 1237.91 379.414 1460.78 535.797C1683.66 692.181 1863.93 498.198 1926.21 381.658" stroke="#D6BB87" stroke-width="9.14286"/>
<path d="M122.337 1176.18C160.821 1053.59 319.301 823.242 645.35 882.516C971.399 941.791 1097.49 711.852 1119.78 589.473C1143.35 513.082 1245.87 398.239 1467.37 550C1688.87 701.76 1872.36 514.362 1936.41 401.693" stroke="#DAC18E" stroke-width="9.57143"/>
</svg>
